<svg xmlns="http://www.w3.org/2000/svg" viewBox="0 0 32 32" role="img" aria-label="Destination Anywhere — 後台">
  <rect width="32" height="32" rx="6" fill="#0F0E0C"/>
  <!-- Top-down car body: oversight perspective -->
  <path d="M10 4
           Q10 3 11 3
           L21 3
           Q22 3 22 4
           L23.5 6.5
           Q24 7.5 24 9
           L24 23
           Q24 24.5 23.5 25.5
           L22 28
           Q22 29 21 29
           L11 29
           Q10 29 10 28
           L8.5 25.5
           Q8 24.5 8 23
           L8 9
           Q8 7.5 8.5 6.5
           Z"
        fill="#D4860A"/>
  <!-- Front windshield (top) -->
  <path d="M11 7
           Q11 6.4 11.6 6.4
           L20.4 6.4
           Q21 6.4 21 7
           L20.2 11
           Q20 11.4 19.4 11.4
           L12.6 11.4
           Q12 11.4 11.8 11
           Z"
        fill="#0F0E0C"/>
  <!-- Rear window (bottom) -->
  <path d="M11.8 20.6
           Q12 20.2 12.6 20.2
           L19.4 20.2
           Q20 20.2 20.2 20.6
           L21 24.6
           Q21 25.2 20.4 25.2
           L11.6 25.2
           Q11 25.2 11 24.6
           Z"
        fill="#0F0E0C"/>
  <!-- Side mirrors -->
  <rect x="6.4" y="9.8" width="1.8" height="2.4" rx="0.5" fill="#D4860A"/>
  <rect x="23.8" y="9.8" width="1.8" height="2.4" rx="0.5" fill="#D4860A"/>
  <!-- Roof center line (sunroof / spine) -->
  <rect x="15.2" y="13" width="1.6" height="6" rx="0.4" fill="#0F0E0C" opacity="0.55"/>
  <!-- Headlight dots -->
  <circle cx="11.6" cy="4.6" r="0.5" fill="#0F0E0C"/>
  <circle cx="20.4" cy="4.6" r="0.5" fill="#0F0E0C"/>
</svg>
