<svg xmlns="http://www.w3.org/2000/svg" viewBox="0 0 32 32" role="img" aria-label="Destination Anywhere — 乘客端">
  <rect width="32" height="32" rx="6" fill="#0F0E0C"/>
  <!-- Sedan body: low-slung luxury silhouette -->
  <path d="M3 21
           L5.5 16
           Q6 14.8 7.2 14.4
           L11 13
           Q12 12.6 13 12.6
           L19.5 12.6
           Q20.6 12.6 21.6 13
           L25 14.4
           Q26 14.8 26.4 15.6
           L29 21
           L29 23
           Q29 24 28 24
           L25.6 24
           A2.6 2.6 0 1 0 20.4 24
           L11.6 24
           A2.6 2.6 0 1 0 6.4 24
           L4 24
           Q3 24 3 23
           Z"
        fill="#D4860A"/>
  <!-- Window glass (negative space) -->
  <path d="M8.8 17.6
           L11.4 14.4
           Q12 13.8 13 13.8
           L19.5 13.8
           Q20.5 13.8 21 14.4
           L23.4 17.6
           Z"
        fill="#0F0E0C"/>
  <!-- Window split (B-pillar accent) -->
  <rect x="15.6" y="13.8" width="0.8" height="3.8" fill="#D4860A"/>
  <!-- Wheels (outer dark + gold cap) -->
  <circle cx="9" cy="24" r="2.6" fill="#0F0E0C"/>
  <circle cx="23" cy="24" r="2.6" fill="#0F0E0C"/>
  <circle cx="9" cy="24" r="1.2" fill="#D4860A"/>
  <circle cx="23" cy="24" r="1.2" fill="#D4860A"/>
</svg>
