<svg xmlns="http://www.w3.org/2000/svg" viewBox="0 0 120 120" width="120" height="120" role="img" aria-label="LINE QR Placeholder">
  <rect width="120" height="120" fill="#ffffff"/>
  <g fill="#0f1115">
    <rect x="8" y="8" width="28" height="28"/>
    <rect x="13" y="13" width="18" height="18" fill="#ffffff"/>
    <rect x="18" y="18" width="8" height="8"/>
    <rect x="84" y="8" width="28" height="28"/>
    <rect x="89" y="13" width="18" height="18" fill="#ffffff"/>
    <rect x="94" y="18" width="8" height="8"/>
    <rect x="8" y="84" width="28" height="28"/>
    <rect x="13" y="89" width="18" height="18" fill="#ffffff"/>
    <rect x="18" y="94" width="8" height="8"/>
    <rect x="44" y="40" width="6" height="6"/>
    <rect x="56" y="40" width="6" height="6"/>
    <rect x="68" y="40" width="6" height="6"/>
    <rect x="40" y="52" width="6" height="6"/>
    <rect x="52" y="52" width="6" height="6"/>
    <rect x="64" y="52" width="6" height="6"/>
    <rect x="76" y="52" width="6" height="6"/>
    <rect x="44" y="64" width="6" height="6"/>
    <rect x="56" y="64" width="6" height="6"/>
    <rect x="68" y="64" width="6" height="6"/>
    <rect x="40" y="76" width="6" height="6"/>
    <rect x="52" y="76" width="6" height="6"/>
    <rect x="64" y="76" width="6" height="6"/>
    <rect x="76" y="76" width="6" height="6"/>
  </g>
  <g transform="translate(60 60)">
    <circle r="14" fill="#06c755"/>
    <text x="0" y="4" text-anchor="middle" font-family="'Bebas Neue', sans-serif" font-size="11" font-weight="700" fill="#ffffff" letter-spacing="0.5">LINE</text>
  </g>
</svg>
